Jeff.Who.Lives.At.Home.2011.LiMiTED.BRRip.XviD.AC3-ADTRG




Dispatched from his basement room on an errand for his mother, slacker Jeff might discover his destiny (finally) when he spends the day with his brother as he tracks his possibly adulterous wife. 

Source - Jeff.Who.Lives.At.Home.2011.LiMiTED.720p.BluRay.x264-SPARKS Thanks

Complete name : Jeff.Who.Lives.At.Home.2011.LiMiTED.BRRip.XViD.AC3-ADTRG.avi
Format : AVI
Format/Info : Audio Video Interleave
File size : 1.27 GiB
Duration : 1h 23mn
Overall bit rate : 2 189 Kbps
Writing library : VirtualDub build 34703/release

Video
ID : 0
Format : MPEG-4 Visual
Codec ID : XVID
Bit rate : 1 795 Kbps
Width : 720 pixels
Height : 400 pixels
Display aspect ratio : 16:9
Frame rate : 23.976 fps
Stream size : 1.04 GiB (82%)

Audio
ID : 1
Format : AC-3
Bit rate : 384 Kbps
Channel(s) : 6 channels
Channel positions : Front: L C R, Side: L R, LFE
Sampling rate : 48.0 KHz
Stream size : 228 MiB (18%)